<svg width="252" height="31" viewBox="0 0 252 31" fill="none" xmlns="http://www.w3.org/2000/svg">
<path d="M1.41469 29.1306C1.16494 29.2484 1.05798 29.5463 1.17579 29.7961C1.2936 30.0458 1.59157 30.1528 1.84132 30.035L1.41469 29.1306ZM251.391 29.5828L248.077 24.8554L245.64 30.0894L251.391 29.5828ZM1.84132 30.035C2.72322 29.619 3.60753 29.2073 4.49423 28.7998L4.07672 27.8912C3.18697 28.3 2.29962 28.7131 1.41469 29.1306L1.84132 30.035ZM9.83731 26.4096C11.6248 25.6315 13.4215 24.8707 15.2274 24.1274L14.8467 23.2027C13.0347 23.9485 11.2318 24.7119 9.43816 25.4927L9.83731 26.4096ZM20.6624 21.9541C22.4795 21.2487 24.3054 20.5609 26.1399 19.8909L25.7968 18.9516C23.956 19.6238 22.1238 20.314 20.3005 21.0219L20.6624 21.9541ZM31.6581 17.9384C33.5019 17.3068 35.354 16.6932 37.2142 16.0976L36.9093 15.1452C35.0427 15.7428 33.1842 16.3586 31.3341 16.9923L31.6581 17.9384ZM42.8069 14.3691C44.6743 13.8125 46.5496 13.2741 48.4325 12.754L48.1663 11.7901C46.2769 12.312 44.3951 12.8523 42.5213 13.4108L42.8069 14.3691ZM54.0906 11.2523C55.9786 10.7716 57.874 10.3091 59.7765 9.8653L59.5493 8.89145C57.6402 9.33683 55.7383 9.80083 53.8438 10.2833L54.0906 11.2523ZM65.4907 8.59272C67.3962 8.18845 69.3086 7.80272 71.2276 7.43574L71.0398 6.45354C69.1142 6.82178 67.1953 7.20883 65.2832 7.61449L65.4907 8.59272ZM76.9882 6.39402C78.9082 6.06668 80.8347 5.75805 82.7673 5.46832L82.6191 4.47937C80.6798 4.77009 78.7468 5.07978 76.8201 5.40825L76.9882 6.39402ZM88.5646 4.65849C90.4962 4.40835 92.4337 4.17705 94.3768 3.96477L94.2682 2.97068C92.3184 3.18368 90.3744 3.41578 88.4362 3.66677L88.5646 4.65849ZM100.201 3.38718C102.141 3.21429 104.087 3.06034 106.038 2.9255L105.969 1.92788C104.011 2.06317 102.059 2.21765 100.113 2.39113L100.201 3.38718ZM111.88 2.57982C113.825 2.48404 115.775 2.40725 117.73 2.34963L117.7 1.35007C115.739 1.40787 113.782 1.48492 111.831 1.58103L111.88 2.57982ZM123.581 2.23476C124.556 2.2252 125.532 2.22041 126.51 2.22041V1.22041C125.529 1.22041 124.55 1.22522 123.572 1.23481L123.581 2.23476ZM126.51 2.22041C127.487 2.22041 128.463 2.2252 129.438 2.23476L129.448 1.23481C128.469 1.22522 127.49 1.22041 126.51 1.22041V2.22041ZM135.289 2.34963C137.244 2.40725 139.194 2.48404 141.139 2.57982L141.189 1.58103C139.237 1.48492 137.28 1.40787 135.319 1.35007L135.289 2.34963ZM146.982 2.9255C148.932 3.06034 150.878 3.21429 152.818 3.38718L152.907 2.39113C150.96 2.21765 149.008 2.06317 147.05 1.92788L146.982 2.9255ZM158.642 3.96477C160.585 4.17705 162.523 4.40835 164.454 4.65849L164.583 3.66677C162.645 3.41578 160.701 3.18368 158.751 2.97068L158.642 3.96477ZM170.252 5.46832C172.184 5.75805 174.111 6.06668 176.031 6.39402L176.199 5.40825C174.272 5.07978 172.339 4.7701 170.4 4.47937L170.252 5.46832ZM181.791 7.43574C183.71 7.80272 185.623 8.18845 187.528 8.59272L187.736 7.61449C185.824 7.20883 183.905 6.82178 181.979 6.45354L181.791 7.43574ZM193.243 9.8653C195.145 10.3091 197.04 10.7716 198.928 11.2523L199.175 10.2833C197.281 9.80083 195.379 9.33683 193.47 8.89145L193.243 9.8653ZM204.587 12.754C206.469 13.2741 208.345 13.8125 210.212 14.3691L210.498 13.4108C208.624 12.8523 206.742 12.312 204.853 11.7901L204.587 12.754ZM215.805 16.0976C217.665 16.6932 219.517 17.3068 221.361 17.9384L221.685 16.9923C219.835 16.3586 217.976 15.7428 216.11 15.1452L215.805 16.0976ZM226.879 19.8909C228.714 20.5609 230.54 21.2487 232.357 21.9541L232.719 21.0219C230.895 20.314 229.063 19.6239 227.222 18.9516L226.879 19.8909ZM237.792 24.1274C239.598 24.8707 241.394 25.6315 243.182 26.4096L243.581 25.4927C241.787 24.7119 239.984 23.9485 238.172 23.2027L237.792 24.1274ZM1.20138 28.6783C0.701878 28.914 0.487959 29.5099 0.723578 30.0094C0.959197 30.5089 1.55513 30.7228 2.05463 30.4872L1.20138 28.6783ZM251.391 29.5828L244.762 20.128L239.889 30.596L251.391 29.5828ZM2.05463 30.4872C2.93502 30.0719 3.81781 29.6609 4.70299 29.2542L3.86796 27.4368C2.97669 27.8464 2.08782 28.2602 1.20138 28.6783L2.05463 30.4872ZM10.0369 26.868C11.8213 26.0912 13.615 25.3317 15.4177 24.5898L14.6564 22.7403C12.8413 23.4874 11.0353 24.2521 9.23859 25.0343L10.0369 26.868ZM20.8433 22.4202C22.6573 21.716 24.4801 21.0294 26.3114 20.3605L25.6253 18.4819C23.7813 19.1553 21.946 19.8467 20.1195 20.5558L20.8433 22.4202ZM31.8202 18.4114C33.6608 17.7809 35.5097 17.1683 37.3667 16.5738L36.7569 14.6691C34.8871 15.2677 33.0254 15.8845 31.1721 16.5193L31.8202 18.4114ZM42.9497 14.8483C44.8139 14.2927 46.686 13.7552 48.5656 13.2359L48.0331 11.3081C46.1405 11.8309 44.2555 12.3722 42.3784 12.9316L42.9497 14.8483ZM54.214 11.7369C56.0987 11.2569 57.9908 10.7953 59.8901 10.3522L59.4357 8.40453C57.5234 8.85066 55.6182 9.31546 53.7204 9.79871L54.214 11.7369ZM65.5945 9.08183C67.4967 8.67825 69.4058 8.29319 71.3215 7.92685L70.9459 5.96244C69.017 6.33131 67.0948 6.71902 65.1794 7.12538L65.5945 9.08183ZM77.0722 6.88691C78.989 6.56013 80.9121 6.25203 82.8415 5.9628L82.5449 3.9849C80.6024 4.27612 78.666 4.58633 76.7361 4.91536L77.0722 6.88691ZM88.6289 5.15435C90.5571 4.90464 92.4913 4.67373 94.4311 4.46181L94.214 2.47364C92.2608 2.687 90.3134 2.91949 88.372 3.17091L88.6289 5.15435ZM100.246 3.88521C102.182 3.71261 104.125 3.55892 106.072 3.42431L105.934 1.42907C103.973 1.56459 102.018 1.71933 100.068 1.8931L100.246 3.88521ZM111.904 3.07921C113.846 2.98359 115.793 2.90693 117.744 2.84941L117.685 0.850282C115.721 0.908188 113.761 0.985366 111.806 1.08163L111.904 3.07921ZM123.586 2.73474C124.56 2.7252 125.534 2.72041 126.51 2.72041V0.720413C125.527 0.720413 124.546 0.725228 123.567 0.734835L123.586 2.73474ZM126.51 2.72041C127.485 2.72041 128.46 2.7252 129.433 2.73474L129.452 0.734835C128.473 0.725228 127.492 0.720413 126.51 0.720413V2.72041ZM135.275 2.84941C137.226 2.90693 139.173 2.98359 141.115 3.07921L141.213 1.08164C139.258 0.985366 137.298 0.908188 135.334 0.850283L135.275 2.84941ZM146.947 3.42431C148.894 3.55892 150.837 3.71261 152.773 3.88521L152.951 1.8931C151.001 1.71933 149.046 1.56459 147.085 1.42907L146.947 3.42431ZM158.588 4.46181C160.528 4.67373 162.462 4.90464 164.39 5.15435L164.647 3.17091C162.706 2.91949 160.758 2.687 158.805 2.47364L158.588 4.46181ZM170.178 5.9628C172.107 6.25203 174.03 6.56013 175.947 6.88691L176.283 4.91536C174.353 4.58633 172.417 4.27612 170.474 3.9849L170.178 5.9628ZM181.698 7.92685C183.613 8.29319 185.522 8.67825 187.425 9.08183L187.84 7.12538C185.924 6.71902 184.002 6.33131 182.073 5.96244L181.698 7.92685ZM193.129 10.3522C195.028 10.7953 196.92 11.2569 198.805 11.7369L199.299 9.79871C197.401 9.31546 195.496 8.85067 193.583 8.40453L193.129 10.3522ZM204.453 13.2359C206.333 13.7552 208.205 14.2927 210.069 14.8483L210.641 12.9316C208.764 12.3722 206.879 11.8309 204.986 11.3081L204.453 13.2359ZM215.652 16.5738C217.509 17.1683 219.358 17.7809 221.199 18.4114L221.847 16.5193C219.994 15.8845 218.132 15.2677 216.262 14.6691L215.652 16.5738ZM226.708 20.3605C228.539 21.0294 230.362 21.716 232.176 22.4202L232.9 20.5558C231.073 19.8467 229.238 19.1553 227.394 18.4819L226.708 20.3605ZM237.601 24.5898C239.404 25.3317 241.198 26.0912 242.982 26.8681L243.781 25.0343C241.984 24.2521 240.178 23.4874 238.363 22.7403L237.601 24.5898Z" fill="#AFAFAF"/>
</svg>
