<svg width="431" height="46" viewBox="0 0 431 46" fill="none" xmlns="http://www.w3.org/2000/svg">
<path d="M25.7725 33.3486C25.7275 33.6481 25.5928 33.8802 25.3682 34.0449C25.1436 34.2246 24.889 34.3145 24.6045 34.3145H24.4697C23.8558 34.2546 23.1221 34.2021 22.2686 34.1572C21.415 34.1123 20.4792 34.0749 19.4609 34.0449C18.4577 34.015 17.387 33.9925 16.249 33.9775C15.126 33.9626 13.988 33.9551 12.835 33.9551C11.682 33.9551 10.5439 33.9626 9.4209 33.9775C8.29785 33.9925 7.2347 34.015 6.23145 34.0449C5.24316 34.0749 4.32227 34.1123 3.46875 34.1572C2.63021 34.2021 1.91895 34.2546 1.33496 34.3145H1.24512C0.945638 34.3145 0.683594 34.2171 0.458984 34.0225C0.234375 33.8278 0.0996094 33.5433 0.0546875 33.1689C0.0546875 32.8695 0.152018 32.6074 0.34668 32.3828C0.556315 32.1582 0.810872 32.0234 1.11035 31.9785C1.5446 31.9336 2.03874 31.8962 2.59277 31.8662C3.16178 31.8363 3.7832 31.7988 4.45703 31.7539L4.97363 3.36328C3.68587 3.27344 2.38314 3.13867 1.06543 2.95898C0.765951 2.91406 0.51888 2.7793 0.324219 2.55469C0.144531 2.33008 0.0546875 2.07552 0.0546875 1.79102C0.0996094 1.40169 0.234375 1.1097 0.458984 0.915039C0.683594 0.705404 0.945638 0.600586 1.24512 0.600586H1.37988C2.95215 0.840169 4.50944 1.01237 6.05176 1.11719C7.60905 1.20703 9.15137 1.25195 10.6787 1.25195C11.6071 1.25195 12.5205 1.23698 13.4189 1.20703C14.3174 1.17708 15.2158 1.11719 16.1143 1.02734H16.2041C16.5485 1.02734 16.833 1.14714 17.0576 1.38672C17.2822 1.61133 17.3945 1.88835 17.3945 2.21777C17.3945 2.51725 17.2897 2.7793 17.0801 3.00391C16.8704 3.21354 16.6084 3.33333 16.2939 3.36328C15.7399 3.4082 15.1784 3.45312 14.6094 3.49805C14.0553 3.52799 13.4938 3.55794 12.9248 3.58789L12.1836 31.6191H12.835C13.8532 31.6191 14.8639 31.6266 15.8672 31.6416C16.8704 31.6566 17.8363 31.679 18.7646 31.709C19.708 31.724 20.5915 31.7464 21.415 31.7764C22.2386 31.8063 22.9798 31.8438 23.6387 31.8887L25.3008 22.5C25.3457 22.2005 25.4805 21.9609 25.7051 21.7812C25.9297 21.5866 26.1768 21.4893 26.4463 21.4893C26.7757 21.4893 27.0602 21.6165 27.2998 21.8711C27.5394 22.1107 27.6592 22.3802 27.6592 22.6797C27.6592 22.7246 27.6517 22.762 27.6367 22.792C27.6217 22.8219 27.6143 22.8594 27.6143 22.9043L25.7725 33.3486ZM50.2549 22.1406V21.7588C50.2549 20.6357 50.1351 19.5951 49.8955 18.6367C49.6559 17.6784 49.2741 16.8324 48.75 16.0986C48.2409 15.3499 47.582 14.736 46.7734 14.2568C45.9648 13.7777 44.9915 13.4557 43.8535 13.291C43.0599 13.3809 42.3711 13.598 41.7871 13.9424C41.2031 14.2868 40.7015 14.7135 40.2822 15.2227C39.8779 15.7168 39.541 16.2783 39.2715 16.9072C39.002 17.5361 38.7848 18.1875 38.6201 18.8613C38.4704 19.5202 38.3581 20.1865 38.2832 20.8604C38.2083 21.5192 38.1634 22.1406 38.1484 22.7246C38.388 22.7995 38.6875 22.8818 39.0469 22.9717C39.4212 23.0615 39.8405 23.1514 40.3047 23.2412C40.7689 23.3161 41.2705 23.3835 41.8096 23.4434C42.3636 23.4883 42.9401 23.5107 43.5391 23.5107C44.8118 23.5107 46.0023 23.391 47.1104 23.1514C48.2334 22.9118 49.2816 22.5749 50.2549 22.1406ZM52.5459 23.0166C52.501 23.4059 52.2913 23.7428 51.917 24.0273C51.5426 24.3118 51.071 24.5664 50.502 24.791C49.9329 25.0007 49.304 25.1803 48.6152 25.3301C47.9414 25.4648 47.2751 25.5771 46.6162 25.667C45.9574 25.7568 45.3509 25.8242 44.7969 25.8691C44.2428 25.8991 43.8086 25.9141 43.4941 25.9141C42.401 25.9141 41.3903 25.8392 40.4619 25.6895C39.5485 25.5397 38.7923 25.3825 38.1934 25.2178C38.2832 26.1462 38.4554 27.0596 38.71 27.958C38.9645 28.8564 39.3314 29.665 39.8105 30.3838C40.2897 31.0876 40.8887 31.6641 41.6074 32.1133C42.3262 32.5475 43.1947 32.7646 44.2129 32.7646C44.5872 32.7646 45.014 32.7197 45.4932 32.6299C45.9723 32.5251 46.444 32.3828 46.9082 32.2031C47.3724 32.0085 47.7992 31.7839 48.1885 31.5293C48.5778 31.2598 48.8848 30.9603 49.1094 30.6309C49.3639 30.3314 49.6709 30.1816 50.0303 30.1816C50.3447 30.1816 50.6217 30.3089 50.8613 30.5635C51.1009 30.8031 51.2207 31.0726 51.2207 31.3721C51.2207 31.6865 51.1234 31.9336 50.9287 32.1133C50.5693 32.6673 50.0677 33.139 49.4238 33.5283C48.7799 33.9176 48.0837 34.2321 47.335 34.4717C46.5863 34.7262 45.8301 34.9059 45.0664 35.0107C44.3027 35.1305 43.6064 35.1904 42.9775 35.1904C41.1807 35.1904 39.5111 34.8685 37.9688 34.2246C36.4264 33.5957 35.0863 32.7272 33.9482 31.6191C32.8102 30.5111 31.9118 29.2083 31.2529 27.7109C30.609 26.2135 30.2871 24.5964 30.2871 22.8594C30.2871 20.9577 30.5716 19.2656 31.1406 17.7832C31.7096 16.2858 32.5182 15.028 33.5664 14.0098C34.6146 12.9766 35.8874 12.1979 37.3848 11.6738C38.8822 11.1348 40.5667 10.8652 42.4385 10.8652C44.2054 10.9401 45.7253 11.2396 46.998 11.7637C48.2858 12.2878 49.3415 13.014 50.165 13.9424C50.9886 14.8708 51.5951 15.9938 51.9844 17.3115C52.3887 18.6143 52.5908 20.0817 52.5908 21.7139C52.5908 22.0882 52.5833 22.3877 52.5684 22.6123C52.5534 22.8219 52.5459 22.9567 52.5459 23.0166ZM71.3008 26.1387C71.2708 25.8841 71.2484 25.6221 71.2334 25.3525C71.2184 25.083 71.2109 24.806 71.2109 24.5215H70.3799C69.7809 24.5215 69.0697 24.5664 68.2461 24.6562C67.4375 24.7461 66.599 24.8883 65.7305 25.083C64.862 25.2777 64.001 25.5397 63.1475 25.8691C62.2939 26.1836 61.5303 26.5729 60.8564 27.0371C60.1826 27.4863 59.6361 28.0179 59.2168 28.6318C58.8125 29.2458 58.6104 29.9495 58.6104 30.7432C58.6104 31.1624 58.7077 31.5218 58.9023 31.8213C59.112 32.1208 59.3665 32.3678 59.666 32.5625C59.9805 32.7422 60.3249 32.877 60.6992 32.9668C61.0736 33.0417 61.4329 33.0791 61.7773 33.0791C62.8405 33.0791 63.8438 32.877 64.7871 32.4727C65.7454 32.0534 66.6289 31.5143 67.4375 30.8555C68.2461 30.1816 68.9723 29.4329 69.6162 28.6094C70.2601 27.7858 70.8216 26.9622 71.3008 26.1387ZM82.0596 33.9102H81.9697C81.7152 33.8802 81.4531 33.8652 81.1836 33.8652C80.9141 33.8652 80.652 33.8652 80.3975 33.8652C78.9899 33.8652 77.6348 33.9551 76.332 34.1348C75.0443 34.3145 73.749 34.5915 72.4463 34.9658C72.4014 34.9658 72.3564 34.9733 72.3115 34.9883C72.2666 35.0033 72.2067 35.0107 72.1318 35.0107C71.7874 35.0107 71.5029 34.876 71.2783 34.6064C71.0687 34.3519 70.9639 34.0898 70.9639 33.8203V33.6406C70.9639 33.6107 71.0013 33.3112 71.0762 32.7422C71.151 32.1582 71.2259 31.3496 71.3008 30.3164C70.6569 31.0352 69.9681 31.709 69.2344 32.3379C68.5156 32.9518 67.752 33.4909 66.9434 33.9551C66.1497 34.4043 65.3262 34.7562 64.4727 35.0107C63.6191 35.2803 62.7357 35.415 61.8223 35.415C61.1035 35.415 60.4072 35.3027 59.7334 35.0781C59.0596 34.8685 58.4606 34.5615 57.9365 34.1572C57.4274 33.7529 57.0156 33.2663 56.7012 32.6973C56.4017 32.1133 56.252 31.4619 56.252 30.7432C56.252 29.6201 56.4915 28.6318 56.9707 27.7783C57.4648 26.9248 58.1087 26.1836 58.9023 25.5547C59.696 24.9108 60.5944 24.3792 61.5977 23.96C62.6159 23.5257 63.6491 23.1813 64.6973 22.9268C65.7454 22.6572 66.7637 22.4701 67.752 22.3652C68.7402 22.2454 69.6162 22.1855 70.3799 22.1855H70.9189C70.9189 21.2721 70.7542 20.3812 70.4248 19.5127C70.1104 18.6442 69.6611 17.873 69.0771 17.1992C68.5081 16.5254 67.8268 15.9863 67.0332 15.582C66.2396 15.1628 65.3636 14.9531 64.4053 14.9531C63.7015 14.9531 63.0127 15.1553 62.3389 15.5596C61.665 15.9489 61.0661 16.4505 60.542 17.0645C60.0179 17.6784 59.5911 18.3672 59.2617 19.1309C58.9473 19.8945 58.79 20.6357 58.79 21.3545C58.79 21.654 58.6628 21.9085 58.4082 22.1182C58.1686 22.3128 57.8991 22.4102 57.5996 22.4102C57.2702 22.4102 56.9857 22.2904 56.7461 22.0508C56.5065 21.7962 56.3867 21.5192 56.3867 21.2197C56.3867 20.501 56.514 19.7523 56.7686 18.9736C57.0231 18.18 57.39 17.4089 57.8691 16.6602C58.3633 15.8965 58.9548 15.1777 59.6436 14.5039C60.3473 13.8301 61.141 13.2386 62.0244 12.7295C62.9229 12.2054 63.9036 11.7936 64.9668 11.4941C66.0299 11.1947 67.1605 11.0449 68.3584 11.0449C70.0355 11.0449 71.4655 11.307 72.6484 11.8311C73.8464 12.3551 74.8421 13.0664 75.6357 13.9648C76.4443 14.8633 77.0807 15.904 77.5449 17.0869C78.0091 18.2699 78.361 19.5202 78.6006 20.8379C78.8402 22.1556 78.9899 23.4958 79.0498 24.8584C79.1247 26.221 79.1621 27.5238 79.1621 28.7666C79.1621 29.3955 79.1546 29.9346 79.1396 30.3838C79.1247 30.833 79.1172 31.2074 79.1172 31.5068C79.3418 31.5068 79.5664 31.4993 79.791 31.4844C80.0306 31.4694 80.2627 31.4619 80.4873 31.4619C80.7419 31.4619 81.0039 31.4694 81.2734 31.4844C81.5579 31.4993 81.835 31.5068 82.1045 31.5068C82.4339 31.5368 82.696 31.6641 82.8906 31.8887C83.1003 32.1133 83.2051 32.3903 83.2051 32.7197C83.2051 33.0342 83.0928 33.3112 82.8682 33.5508C82.6585 33.7904 82.389 33.9102 82.0596 33.9102ZM104.61 22.8594C104.056 22.8594 103.532 22.7546 103.038 22.5449C102.559 22.3353 102.14 22.0508 101.78 21.6914C101.421 21.332 101.136 20.9128 100.927 20.4336C100.717 19.9395 100.612 19.4154 100.612 18.8613C100.612 18.3073 100.717 17.7907 100.927 17.3115C101.136 16.8174 101.421 16.3906 101.78 16.0312C102.14 15.6569 102.559 15.3649 103.038 15.1553C103.532 14.9307 104.056 14.8184 104.61 14.8184C104.685 14.8184 104.753 14.8258 104.812 14.8408C104.887 14.8558 104.962 14.8633 105.037 14.8633C104.648 14.5638 104.191 14.3392 103.667 14.1895C103.158 14.0247 102.566 13.9424 101.893 13.9424C101.039 13.9424 100.298 14.1221 99.6689 14.4814C99.04 14.8258 98.501 15.2676 98.0518 15.8066C97.6175 16.3307 97.2656 16.9072 96.9961 17.5361C96.7266 18.1501 96.5094 18.734 96.3447 19.2881C96.195 19.8271 96.0902 20.2913 96.0303 20.6807C95.9854 21.07 95.9629 21.2946 95.9629 21.3545L95.918 31.3271C96.4421 31.3721 96.9661 31.4395 97.4902 31.5293C98.0293 31.6191 98.5758 31.709 99.1299 31.7988C99.4144 31.8737 99.6465 32.0234 99.8262 32.248C100.006 32.4577 100.096 32.7048 100.096 32.9893C100.096 33.3187 99.9684 33.5957 99.7139 33.8203C99.4593 34.0299 99.1898 34.1348 98.9053 34.1348H98.6807C97.4678 33.9102 96.3148 33.738 95.2217 33.6182C94.1286 33.4984 93.043 33.4385 91.9648 33.4385C90.8867 33.4385 89.8086 33.4984 88.7305 33.6182C87.6523 33.738 86.5068 33.9102 85.2939 34.1348H85.0693C84.7249 34.1348 84.4479 34.0225 84.2383 33.7979C84.0286 33.5583 83.9238 33.2887 83.9238 32.9893C83.9238 32.7048 84.0062 32.4577 84.1709 32.248C84.3356 32.0234 84.5602 31.8737 84.8447 31.7988C85.3688 31.709 85.8929 31.6191 86.417 31.5293C86.9411 31.4395 87.4577 31.3721 87.9668 31.3271V14.5938C87.0234 14.5488 86.2298 14.4889 85.5859 14.4141C84.9421 14.3392 84.5827 14.2868 84.5078 14.2568C84.2083 14.2269 83.9613 14.1071 83.7666 13.8975C83.5869 13.6729 83.4971 13.4108 83.4971 13.1113C83.4971 12.737 83.6243 12.445 83.8789 12.2354C84.1484 12.0257 84.418 11.9209 84.6875 11.9209H84.8447C84.8597 11.9359 85.0319 11.9658 85.3613 12.0107C85.6908 12.0407 86.1175 12.0781 86.6416 12.123C87.1657 12.168 87.7646 12.2054 88.4385 12.2354C89.1273 12.2653 89.8236 12.2803 90.5273 12.2803C91.2461 12.2803 91.9499 12.2578 92.6387 12.2129C93.3275 12.168 93.9639 12.0856 94.5479 11.9658C94.5778 11.9359 94.6527 11.9209 94.7725 11.9209C95.1169 11.9209 95.4014 12.0482 95.626 12.3027C95.8506 12.5423 95.9629 12.8118 95.9629 13.1113V14.7285C96.6068 13.8301 97.4154 13.0889 98.3887 12.5049C99.377 11.9059 100.545 11.6064 101.893 11.6064C102.911 11.6364 103.839 11.8161 104.678 12.1455C105.516 12.46 106.235 12.9017 106.834 13.4707C107.448 14.0247 107.92 14.6986 108.249 15.4922C108.593 16.2708 108.766 17.1468 108.766 18.1201C108.766 18.734 108.668 19.3255 108.474 19.8945C108.279 20.4635 108.002 20.9727 107.643 21.4219C107.283 21.8561 106.841 22.208 106.317 22.4775C105.808 22.7321 105.239 22.8594 104.61 22.8594ZM139.941 32.9893C139.911 33.2887 139.777 33.5433 139.537 33.7529C139.298 33.9476 139.028 34.0449 138.729 34.0449H138.639C137.92 33.9701 137.224 33.9176 136.55 33.8877C135.891 33.8428 135.24 33.8203 134.596 33.8203C133.652 33.8203 132.746 33.8652 131.878 33.9551C131.024 34.0299 130.186 34.1348 129.362 34.2695C129.332 34.2695 129.295 34.277 129.25 34.292C129.22 34.307 129.19 34.3145 129.16 34.3145C128.846 34.3145 128.569 34.1947 128.329 33.9551C128.09 33.7005 127.97 33.4235 127.97 33.124C127.97 32.8545 128.06 32.6074 128.239 32.3828C128.434 32.1582 128.666 32.0234 128.936 31.9785C129.564 31.8587 130.193 31.7689 130.822 31.709C131.466 31.6341 132.125 31.5667 132.799 31.5068C132.934 31.0426 133.076 30.4137 133.226 29.6201C133.375 28.8265 133.51 27.973 133.63 27.0596C133.765 26.1462 133.869 25.2253 133.944 24.2969C134.034 23.3685 134.079 22.5374 134.079 21.8037C134.079 21.04 134.034 20.209 133.944 19.3105C133.869 18.4121 133.682 17.5736 133.383 16.7949C133.098 16.0013 132.679 15.3424 132.125 14.8184C131.586 14.2943 130.86 14.0322 129.946 14.0322C128.913 14.0322 127.955 14.2868 127.071 14.7959C126.188 15.305 125.424 15.9564 124.78 16.75C124.151 17.5286 123.65 18.3896 123.275 19.333C122.916 20.2764 122.736 21.1823 122.736 22.0508V22.0957L122.691 31.9785C122.961 32.0085 123.223 32.0384 123.478 32.0684C123.732 32.0833 123.987 32.1133 124.241 32.1582C124.541 32.1882 124.788 32.3154 124.982 32.54C125.192 32.7497 125.297 33.0042 125.297 33.3037C125.297 33.6331 125.17 33.9176 124.915 34.1572C124.675 34.3968 124.406 34.5166 124.106 34.5166C124.047 34.5166 124.002 34.4941 123.972 34.4492C123.073 34.3594 122.152 34.2695 121.209 34.1797C120.281 34.0898 119.3 34.0449 118.267 34.0449C117.338 34.0449 116.357 34.0898 115.324 34.1797C114.306 34.2845 113.213 34.4417 112.045 34.6514C111.985 34.6813 111.91 34.6963 111.82 34.6963C111.476 34.6963 111.199 34.569 110.989 34.3145C110.78 34.0599 110.675 33.7829 110.675 33.4834C110.675 33.2139 110.757 32.9668 110.922 32.7422C111.087 32.5176 111.311 32.3828 111.596 32.3379C112.15 32.2181 112.681 32.1283 113.19 32.0684C113.7 31.9935 114.209 31.9336 114.718 31.8887V14.7285C113.774 14.6836 112.981 14.6312 112.337 14.5713C111.708 14.4964 111.356 14.444 111.281 14.4141C110.982 14.3841 110.735 14.2568 110.54 14.0322C110.36 13.8076 110.271 13.5456 110.271 13.2461C110.271 12.8867 110.398 12.6022 110.652 12.3926C110.907 12.168 111.176 12.0557 111.461 12.0557C111.521 12.0557 111.566 12.0706 111.596 12.1006C111.611 12.1006 111.783 12.1156 112.112 12.1455C112.442 12.1755 112.868 12.2129 113.393 12.2578C113.932 12.3027 114.538 12.3402 115.212 12.3701C115.886 12.4001 116.582 12.415 117.301 12.415C118.02 12.415 118.723 12.4001 119.412 12.3701C120.101 12.3252 120.73 12.2354 121.299 12.1006C121.329 12.1006 121.359 12.0931 121.389 12.0781C121.434 12.0632 121.479 12.0557 121.523 12.0557C121.868 12.0557 122.152 12.1829 122.377 12.4375C122.617 12.6771 122.736 12.9466 122.736 13.2461V15.5596C123.605 14.2868 124.638 13.3285 125.836 12.6846C127.049 12.0257 128.419 11.6963 129.946 11.6963C130.845 11.6963 131.623 11.8535 132.282 12.168C132.956 12.4674 133.533 12.8792 134.012 13.4033C134.506 13.9274 134.903 14.5339 135.202 15.2227C135.517 15.8965 135.764 16.6077 135.943 17.3564C136.138 18.1051 136.265 18.8688 136.325 19.6475C136.4 20.4111 136.438 21.1299 136.438 21.8037C136.438 22.5524 136.4 23.376 136.325 24.2744C136.25 25.1579 136.153 26.0413 136.033 26.9248C135.928 27.8083 135.801 28.6468 135.651 29.4404C135.517 30.234 135.382 30.9079 135.247 31.4619C135.816 31.4919 136.4 31.5218 136.999 31.5518C137.613 31.5817 138.234 31.6341 138.863 31.709C139.208 31.7389 139.47 31.8887 139.649 32.1582C139.844 32.4128 139.941 32.6898 139.941 32.9893ZM176.351 22.1855C175.797 20.4935 175.213 18.9362 174.599 17.5137C173.985 16.0762 173.378 14.7884 172.779 13.6504C172.195 12.4974 171.634 11.4941 171.095 10.6406C170.571 9.77214 170.121 9.06087 169.747 8.50684C168.354 10.8727 167.104 13.1862 165.996 15.4473C164.903 17.6934 163.93 19.9395 163.076 22.1855C164.274 22.3203 165.427 22.4326 166.535 22.5225C167.643 22.5973 168.744 22.6348 169.837 22.6348C170.915 22.6348 171.986 22.5973 173.049 22.5225C174.127 22.4326 175.228 22.3203 176.351 22.1855ZM191.669 34.5166C191.639 34.5166 191.609 34.5091 191.579 34.4941C191.549 34.4941 191.519 34.4792 191.489 34.4492C190.127 34.2396 188.779 34.0898 187.446 34C186.129 33.9102 184.811 33.8652 183.493 33.8652C182.19 33.8652 180.903 33.9102 179.63 34C178.372 34.0898 177.114 34.2396 175.856 34.4492C175.826 34.4792 175.797 34.4941 175.767 34.4941C175.737 34.5091 175.707 34.5166 175.677 34.5166C175.347 34.5166 175.063 34.3893 174.823 34.1348C174.599 33.8802 174.486 33.6032 174.486 33.3037C174.486 33.0342 174.576 32.7871 174.756 32.5625C174.951 32.3379 175.198 32.2031 175.497 32.1582C176.096 32.0384 176.702 31.9486 177.316 31.8887C177.93 31.8138 178.559 31.7389 179.203 31.6641C179.128 31.3796 179.038 31.0277 178.934 30.6084C178.829 30.1742 178.687 29.665 178.507 29.0811C178.342 28.4971 178.14 27.8232 177.9 27.0596C177.676 26.2809 177.406 25.4049 177.092 24.4316C175.819 24.6113 174.591 24.7536 173.408 24.8584C172.225 24.9482 171.035 24.9932 169.837 24.9932C168.624 24.9932 167.396 24.9482 166.153 24.8584C164.91 24.7536 163.608 24.6113 162.245 24.4316C161.451 26.7975 160.808 29.141 160.313 31.4619C161.242 31.4919 162.17 31.5667 163.099 31.6865C164.042 31.7913 165 31.9486 165.974 32.1582C166.243 32.2031 166.46 32.3379 166.625 32.5625C166.805 32.7871 166.895 33.0342 166.895 33.3037C166.895 33.6481 166.76 33.9326 166.49 34.1572C166.236 34.3968 165.966 34.5166 165.682 34.5166C165.637 34.5166 165.599 34.5016 165.569 34.4717C165.539 34.4567 165.502 34.4492 165.457 34.4492C164.469 34.2396 163.495 34.0824 162.537 33.9775C161.594 33.8727 160.65 33.8203 159.707 33.8203C158.779 33.8203 157.865 33.8727 156.967 33.9775C156.068 34.0824 155.155 34.2396 154.227 34.4492C154.182 34.4492 154.144 34.4567 154.114 34.4717C154.084 34.5016 154.047 34.5166 154.002 34.5166C153.658 34.5166 153.373 34.3968 153.148 34.1572C152.924 33.9176 152.812 33.6331 152.812 33.3037C152.812 33.0342 152.894 32.7946 153.059 32.585C153.223 32.3753 153.448 32.2331 153.732 32.1582C154.406 31.9935 155.08 31.8662 155.754 31.7764C156.443 31.6865 157.146 31.6117 157.865 31.5518C158.374 29.0811 159.041 26.6104 159.864 24.1396C160.688 21.6689 161.669 19.1758 162.807 16.6602C163.96 14.1296 165.277 11.5615 166.76 8.95605C168.242 6.35059 169.912 3.67025 171.769 0.915039C171.903 0.735352 172.053 0.608073 172.218 0.533203C172.397 0.458333 172.57 0.420898 172.734 0.420898C172.914 0.420898 173.086 0.458333 173.251 0.533203C173.416 0.593099 173.55 0.69043 173.655 0.825195C176.8 4.83822 179.495 9.3903 181.741 14.4814C184.002 19.5576 185.859 25.2702 187.312 31.6191C188.839 31.7539 190.359 31.9336 191.871 32.1582C192.171 32.2031 192.41 32.3379 192.59 32.5625C192.785 32.7871 192.882 33.0342 192.882 33.3037C192.882 33.6331 192.747 33.9176 192.478 34.1572C192.223 34.3968 191.953 34.5166 191.669 34.5166ZM206.089 34.3145H205.864C205.265 34.2096 204.719 34.1198 204.225 34.0449C203.73 33.9701 203.259 33.9176 202.81 33.8877C202.36 33.8428 201.904 33.8128 201.439 33.7979C200.99 33.7829 200.504 33.7754 199.979 33.7754C198.916 33.7754 197.883 33.8203 196.88 33.9102C195.877 33.985 194.776 34.1348 193.578 34.3594H193.354C192.979 34.3594 192.695 34.2396 192.5 34C192.305 33.7754 192.208 33.4984 192.208 33.1689C192.208 32.8994 192.29 32.6598 192.455 32.4502C192.62 32.2406 192.844 32.0983 193.129 32.0234C193.683 31.9336 194.185 31.8662 194.634 31.8213C195.083 31.7614 195.562 31.709 196.071 31.6641V4.23926C195.128 4.16439 194.447 4.09701 194.027 4.03711C193.623 3.96224 193.383 3.9248 193.309 3.9248C193.009 3.87988 192.762 3.74512 192.567 3.52051C192.388 3.2959 192.298 3.04134 192.298 2.75684C192.298 2.36751 192.433 2.07552 192.702 1.88086C192.972 1.67122 193.234 1.56641 193.488 1.56641H193.623C193.638 1.56641 193.773 1.58887 194.027 1.63379C194.282 1.66374 194.626 1.70866 195.061 1.76855C195.51 1.81348 196.034 1.8584 196.633 1.90332C197.247 1.93327 197.913 1.94824 198.632 1.94824C199.351 1.94824 200.054 1.92578 200.743 1.88086C201.432 1.82096 202.061 1.73112 202.63 1.61133C202.675 1.58138 202.757 1.56641 202.877 1.56641C203.221 1.56641 203.506 1.69368 203.73 1.94824C203.955 2.18783 204.067 2.45736 204.067 2.75684L204.022 31.6641C204.277 31.694 204.487 31.724 204.651 31.7539C204.831 31.7689 204.996 31.7913 205.146 31.8213C205.31 31.8363 205.475 31.8587 205.64 31.8887C205.819 31.9036 206.044 31.9336 206.313 31.9785C206.598 32.0534 206.83 32.1956 207.01 32.4053C207.189 32.6149 207.279 32.8545 207.279 33.124C207.279 33.4684 207.152 33.7529 206.897 33.9775C206.658 34.2021 206.388 34.3145 206.089 34.3145ZM227 21.3545C227 20.501 227 19.6999 227 18.9512C227 18.1875 226.985 17.4688 226.955 16.7949C226.88 16.6152 226.73 16.3232 226.506 15.9189C226.296 15.4997 225.959 15.0804 225.495 14.6611C225.046 14.2269 224.447 13.8451 223.698 13.5156C222.95 13.1712 222.006 12.9766 220.868 12.9316C219.356 12.9316 218.068 13.2236 217.005 13.8076C215.942 14.3766 215.066 15.1553 214.377 16.1436C213.688 17.1318 213.187 18.2848 212.872 19.6025C212.558 20.9202 212.4 22.3128 212.4 23.7803C212.415 24.8734 212.565 25.929 212.85 26.9473C213.149 27.9655 213.583 28.8714 214.152 29.665C214.736 30.4437 215.44 31.0726 216.264 31.5518C217.102 32.016 218.068 32.248 219.161 32.248C219.955 32.248 220.696 32.0684 221.385 31.709C222.089 31.3346 222.732 30.848 223.316 30.249C223.9 29.6351 224.417 28.9463 224.866 28.1826C225.33 27.4189 225.72 26.6328 226.034 25.8242C226.349 25.0156 226.588 24.222 226.753 23.4434C226.918 22.6647 227 21.9684 227 21.3545ZM237.714 12.2354C237.714 12.5199 237.617 12.7744 237.422 12.999C237.242 13.2087 237.018 13.3359 236.748 13.3809C236.464 13.4408 236.164 13.4932 235.85 13.5381C235.535 13.568 235.206 13.598 234.861 13.6279C234.861 14.0921 234.869 14.736 234.884 15.5596C234.899 16.3682 234.906 17.334 234.906 18.457C234.906 19.3854 234.899 20.3887 234.884 21.4668C234.869 22.5299 234.846 23.6455 234.816 24.8135C234.786 25.9814 234.742 27.1868 234.682 28.4297C234.637 29.6576 234.569 30.9004 234.479 32.1582C234.36 33.985 233.978 35.7295 233.334 37.3916C232.69 39.0537 231.822 40.5137 230.729 41.7715C229.635 43.0293 228.333 44.0326 226.82 44.7812C225.308 45.5299 223.631 45.9043 221.789 45.9043C220.531 45.9043 219.356 45.6947 218.263 45.2754C217.185 44.8561 216.249 44.2796 215.455 43.5459C214.661 42.8122 214.04 41.9437 213.591 40.9404C213.142 39.9372 212.917 38.8516 212.917 37.6836V37.6387C212.917 37.3092 213.029 37.0247 213.254 36.7852C213.479 36.5605 213.763 36.4482 214.107 36.4482C214.437 36.4482 214.706 36.5605 214.916 36.7852C215.141 37.0247 215.253 37.3092 215.253 37.6387C215.253 38.5671 215.433 39.3906 215.792 40.1094C216.151 40.8431 216.631 41.4645 217.229 41.9736C217.843 42.4977 218.54 42.8945 219.318 43.1641C220.097 43.4336 220.906 43.5684 221.744 43.5684C222.553 43.5684 223.257 43.2988 223.855 42.7598C224.454 42.2207 224.964 41.3822 225.383 40.2441C225.802 39.1211 226.132 37.6761 226.371 35.9092C226.626 34.1572 226.805 32.0609 226.91 29.6201C226.566 30.3239 226.132 30.9827 225.607 31.5967C225.083 32.1956 224.484 32.7197 223.811 33.1689C223.152 33.6182 222.433 33.9701 221.654 34.2246C220.891 34.4792 220.082 34.6064 219.229 34.6064C217.791 34.6064 216.511 34.3145 215.388 33.7305C214.265 33.1465 213.306 32.3604 212.513 31.3721C211.734 30.3838 211.135 29.2383 210.716 27.9355C210.297 26.6328 210.079 25.2627 210.064 23.8252C210.064 22.0283 210.289 20.3288 210.738 18.7266C211.188 17.1094 211.861 15.7018 212.76 14.5039C213.673 13.306 214.811 12.3551 216.174 11.6514C217.536 10.9476 219.131 10.5957 220.958 10.5957C222.276 10.6406 223.406 10.8577 224.35 11.2471C225.308 11.6364 226.124 12.1081 226.798 12.6621L226.753 12.415V12.3701C226.753 12.0557 226.88 11.7786 227.135 11.5391C227.389 11.2995 227.666 11.1797 227.966 11.1797H228.011C228.026 11.1797 228.153 11.1872 228.393 11.2021C228.632 11.2171 228.939 11.2321 229.313 11.2471C229.703 11.262 230.145 11.277 230.639 11.292C231.148 11.307 231.664 11.3145 232.188 11.3145C232.952 11.3145 233.701 11.2995 234.435 11.2695C235.183 11.2396 235.812 11.1797 236.321 11.0898C236.351 11.0599 236.381 11.0449 236.411 11.0449C236.456 11.0449 236.493 11.0449 236.523 11.0449C236.838 11.0449 237.115 11.1722 237.354 11.4268C237.594 11.6663 237.714 11.9359 237.714 12.2354ZM262.106 22.9043C262.106 22.1706 262.024 21.4294 261.859 20.6807C261.695 19.932 261.455 19.2057 261.141 18.502C260.826 17.7982 260.444 17.1393 259.995 16.5254C259.546 15.9115 259.037 15.3799 258.468 14.9307C257.914 14.4665 257.3 14.1071 256.626 13.8525C255.967 13.583 255.263 13.4482 254.515 13.4482C253.676 13.4482 252.942 13.5905 252.313 13.875C251.7 14.1445 251.16 14.5189 250.696 14.998C250.232 15.4622 249.85 16.0013 249.551 16.6152C249.251 17.2292 249.012 17.8805 248.832 18.5693C248.652 19.2581 248.525 19.9544 248.45 20.6582C248.375 21.362 248.338 22.0358 248.338 22.6797C248.338 23.3385 248.368 24.0423 248.428 24.791C248.488 25.5247 248.592 26.2585 248.742 26.9922C248.892 27.7109 249.094 28.4072 249.349 29.0811C249.603 29.7549 249.933 30.3464 250.337 30.8555C250.741 31.3646 251.228 31.7689 251.797 32.0684C252.381 32.3678 253.07 32.5176 253.863 32.5176C255.166 32.5176 256.326 32.248 257.345 31.709C258.378 31.1549 259.246 30.4287 259.95 29.5303C260.654 28.6318 261.186 27.6061 261.545 26.4531C261.919 25.3001 262.106 24.1172 262.106 22.9043ZM264.442 22.9043C264.442 24.7012 264.12 26.3483 263.477 27.8457C262.833 29.3431 261.964 30.6309 260.871 31.709C259.778 32.7721 258.498 33.6032 257.03 34.2021C255.578 34.8011 254.043 35.1006 252.426 35.1006C250.599 35.1006 248.944 34.8086 247.462 34.2246C245.994 33.6556 244.737 32.8395 243.688 31.7764C242.64 30.7132 241.832 29.4329 241.263 27.9355C240.709 26.4382 240.432 24.7611 240.432 22.9043C240.432 21.1374 240.739 19.5052 241.353 18.0078C241.966 16.5104 242.812 15.2227 243.891 14.1445C244.969 13.0514 246.234 12.2054 247.687 11.6064C249.154 10.9925 250.734 10.6855 252.426 10.6855C254.193 10.6855 255.81 11.015 257.277 11.6738C258.76 12.3177 260.033 13.2012 261.096 14.3242C262.159 15.4323 262.982 16.7275 263.566 18.21C264.15 19.6924 264.442 21.2572 264.442 22.9043ZM288.476 22.8594C287.922 22.8594 287.397 22.7546 286.903 22.5449C286.424 22.3353 286.005 22.0508 285.646 21.6914C285.286 21.332 285.002 20.9128 284.792 20.4336C284.582 19.9395 284.478 19.4154 284.478 18.8613C284.478 18.3073 284.582 17.7907 284.792 17.3115C285.002 16.8174 285.286 16.3906 285.646 16.0312C286.005 15.6569 286.424 15.3649 286.903 15.1553C287.397 14.9307 287.922 14.8184 288.476 14.8184C288.55 14.8184 288.618 14.8258 288.678 14.8408C288.753 14.8558 288.827 14.8633 288.902 14.8633C288.513 14.5638 288.056 14.3392 287.532 14.1895C287.023 14.0247 286.432 13.9424 285.758 13.9424C284.904 13.9424 284.163 14.1221 283.534 14.4814C282.905 14.8258 282.366 15.2676 281.917 15.8066C281.483 16.3307 281.131 16.9072 280.861 17.5361C280.592 18.1501 280.375 18.734 280.21 19.2881C280.06 19.8271 279.955 20.2913 279.896 20.6807C279.851 21.07 279.828 21.2946 279.828 21.3545L279.783 31.3271C280.307 31.3721 280.831 31.4395 281.355 31.5293C281.895 31.6191 282.441 31.709 282.995 31.7988C283.28 31.8737 283.512 32.0234 283.691 32.248C283.871 32.4577 283.961 32.7048 283.961 32.9893C283.961 33.3187 283.834 33.5957 283.579 33.8203C283.325 34.0299 283.055 34.1348 282.771 34.1348H282.546C281.333 33.9102 280.18 33.738 279.087 33.6182C277.994 33.4984 276.908 33.4385 275.83 33.4385C274.752 33.4385 273.674 33.4984 272.596 33.6182C271.518 33.738 270.372 33.9102 269.159 34.1348H268.935C268.59 34.1348 268.313 34.0225 268.104 33.7979C267.894 33.5583 267.789 33.2887 267.789 32.9893C267.789 32.7048 267.871 32.4577 268.036 32.248C268.201 32.0234 268.425 31.8737 268.71 31.7988C269.234 31.709 269.758 31.6191 270.282 31.5293C270.806 31.4395 271.323 31.3721 271.832 31.3271V14.5938C270.889 14.5488 270.095 14.4889 269.451 14.4141C268.807 14.3392 268.448 14.2868 268.373 14.2568C268.074 14.2269 267.826 14.1071 267.632 13.8975C267.452 13.6729 267.362 13.4108 267.362 13.1113C267.362 12.737 267.49 12.445 267.744 12.2354C268.014 12.0257 268.283 11.9209 268.553 11.9209H268.71C268.725 11.9359 268.897 11.9658 269.227 12.0107C269.556 12.0407 269.983 12.0781 270.507 12.123C271.031 12.168 271.63 12.2054 272.304 12.2354C272.993 12.2653 273.689 12.2803 274.393 12.2803C275.111 12.2803 275.815 12.2578 276.504 12.2129C277.193 12.168 277.829 12.0856 278.413 11.9658C278.443 11.9359 278.518 11.9209 278.638 11.9209C278.982 11.9209 279.267 12.0482 279.491 12.3027C279.716 12.5423 279.828 12.8118 279.828 13.1113V14.7285C280.472 13.8301 281.281 13.0889 282.254 12.5049C283.242 11.9059 284.41 11.6064 285.758 11.6064C286.776 11.6364 287.704 11.8161 288.543 12.1455C289.382 12.46 290.1 12.9017 290.699 13.4707C291.313 14.0247 291.785 14.6986 292.114 15.4922C292.459 16.2708 292.631 17.1468 292.631 18.1201C292.631 18.734 292.534 19.3255 292.339 19.8945C292.144 20.4635 291.867 20.9727 291.508 21.4219C291.148 21.8561 290.707 22.208 290.183 22.4775C289.674 22.7321 289.104 22.8594 288.476 22.8594ZM309.813 34.5615C309.784 34.5615 309.746 34.554 309.701 34.5391C309.671 34.5241 309.634 34.5166 309.589 34.5166C308.376 34.277 307.223 34.1048 306.13 34C305.037 33.8802 303.951 33.8203 302.873 33.8203C301.78 33.8203 300.694 33.8802 299.616 34C298.538 34.1048 297.4 34.277 296.202 34.5166C296.157 34.5166 296.12 34.5241 296.09 34.5391C296.06 34.554 296.022 34.5615 295.978 34.5615C295.633 34.5615 295.349 34.4342 295.124 34.1797C294.914 33.9251 294.81 33.6481 294.81 33.3486C294.81 33.0791 294.892 32.832 295.057 32.6074C295.236 32.3828 295.461 32.248 295.73 32.2031C296.255 32.0833 296.779 31.9935 297.303 31.9336C297.842 31.8587 298.366 31.7839 298.875 31.709V14.5039C297.932 14.459 297.138 14.3991 296.494 14.3242C295.85 14.2493 295.491 14.2119 295.416 14.2119C295.117 14.167 294.869 14.0322 294.675 13.8076C294.495 13.583 294.405 13.321 294.405 13.0215C294.405 12.6471 294.54 12.3626 294.81 12.168C295.079 11.9733 295.341 11.876 295.596 11.876H295.73C295.745 11.876 295.918 11.8984 296.247 11.9434C296.576 11.9733 297.003 12.0107 297.527 12.0557C298.066 12.1006 298.673 12.1455 299.347 12.1904C300.021 12.2204 300.717 12.2354 301.436 12.2354C302.154 12.2354 302.858 12.2129 303.547 12.168C304.236 12.1081 304.865 12.0107 305.434 11.876H305.681C306.025 11.876 306.31 11.9958 306.534 12.2354C306.759 12.46 306.871 12.722 306.871 13.0215L306.826 31.709C307.35 31.7839 307.874 31.8587 308.398 31.9336C308.938 31.9935 309.484 32.0833 310.038 32.2031C310.323 32.248 310.555 32.3828 310.734 32.6074C310.914 32.832 311.004 33.0791 311.004 33.3486C311.004 33.693 310.877 33.9775 310.622 34.2021C310.368 34.4417 310.098 34.5615 309.813 34.5615ZM306.557 5.02539C306.557 5.57943 306.452 6.10352 306.242 6.59766C306.033 7.07682 305.741 7.49609 305.366 7.85547C305.007 8.21484 304.58 8.49935 304.086 8.70898C303.607 8.91862 303.09 9.02344 302.536 9.02344C301.982 9.02344 301.458 8.91862 300.964 8.70898C300.485 8.49935 300.065 8.21484 299.706 7.85547C299.347 7.49609 299.062 7.07682 298.853 6.59766C298.643 6.10352 298.538 5.57943 298.538 5.02539C298.538 4.47135 298.643 3.95475 298.853 3.47559C299.062 2.98145 299.347 2.55469 299.706 2.19531C300.065 1.83594 300.485 1.55143 300.964 1.3418C301.458 1.13216 301.982 1.02734 302.536 1.02734C303.09 1.02734 303.607 1.13216 304.086 1.3418C304.58 1.55143 305.007 1.83594 305.366 2.19531C305.741 2.55469 306.033 2.98145 306.242 3.47559C306.452 3.95475 306.557 4.47135 306.557 5.02539ZM331.196 12.1455C331.196 12.445 331.091 12.7145 330.882 12.9541C330.687 13.1787 330.44 13.306 330.141 13.3359C329.167 13.4108 328.201 13.4782 327.243 13.5381C326.285 13.598 325.319 13.6429 324.346 13.6729V29.3955C324.346 29.695 324.406 29.972 324.525 30.2266C324.66 30.4811 324.825 30.6982 325.02 30.8779C325.229 31.0576 325.461 31.1999 325.716 31.3047C325.97 31.4095 326.232 31.4619 326.502 31.4619C326.906 31.4619 327.236 31.3571 327.49 31.1475C327.76 30.9229 327.984 30.6533 328.164 30.3389C328.344 30.0094 328.486 29.665 328.591 29.3057C328.711 28.9463 328.808 28.6243 328.883 28.3398C328.928 28.0703 329.062 27.8532 329.287 27.6885C329.512 27.5088 329.759 27.4189 330.028 27.4189C330.373 27.4189 330.65 27.5537 330.859 27.8232C331.084 28.0778 331.196 28.3398 331.196 28.6094V28.8564C330.762 30.848 329.909 32.3903 328.636 33.4834C327.363 34.5615 325.791 35.1006 323.919 35.1006C323.065 35.1006 322.189 34.9883 321.291 34.7637C320.393 34.5391 319.576 34.1198 318.843 33.5059C318.124 32.8919 317.533 32.0459 317.068 30.9678C316.604 29.8747 316.372 28.4596 316.372 26.7227V13.6279C315.698 13.583 315.017 13.5381 314.328 13.4932C313.654 13.4482 312.973 13.3958 312.284 13.3359C311.985 13.291 311.73 13.1562 311.521 12.9316C311.326 12.707 311.229 12.445 311.229 12.1455C311.229 11.8011 311.356 11.5241 311.61 11.3145C311.88 11.1048 312.149 11 312.419 11H312.509C313.168 11.0449 313.812 11.0898 314.44 11.1348C315.084 11.1797 315.728 11.2246 316.372 11.2695V3.63281C316.372 3.37826 316.454 3.14616 316.619 2.93652C316.784 2.71191 316.993 2.56217 317.248 2.4873L322.863 0.982422C322.908 0.952474 322.961 0.9375 323.021 0.9375C323.08 0.922526 323.133 0.915039 323.178 0.915039C323.522 0.915039 323.799 1.04232 324.009 1.29688C324.233 1.55143 324.346 1.82845 324.346 2.12793V11.3145C325.259 11.2845 326.18 11.2471 327.108 11.2021C328.052 11.1423 328.995 11.0749 329.938 11H330.028C330.358 11 330.635 11.1198 330.859 11.3594C331.084 11.584 331.196 11.846 331.196 12.1455ZM361.451 33.6406C361.391 33.6406 361.346 33.6257 361.316 33.5957C360.792 33.5208 360.276 33.4684 359.767 33.4385C359.257 33.4085 358.748 33.3936 358.239 33.3936C357.476 33.3936 356.712 33.431 355.948 33.5059C355.2 33.5807 354.443 33.6855 353.68 33.8203C353.65 33.8503 353.62 33.8652 353.59 33.8652C353.56 33.8652 353.53 33.8652 353.5 33.8652C353.156 33.8652 352.871 33.7454 352.646 33.5059C352.422 33.2513 352.31 32.9743 352.31 32.6748C352.31 32.3903 352.399 32.1432 352.579 31.9336C352.759 31.709 352.991 31.5667 353.275 31.5068C354.339 31.2822 355.409 31.1475 356.487 31.1025C357.311 27.3141 357.723 24.0798 357.723 21.3994C357.723 20.2314 357.633 19.1383 357.453 18.1201C357.288 17.0869 356.981 16.1885 356.532 15.4248C356.098 14.6611 355.499 14.0547 354.735 13.6055C353.972 13.1562 352.991 12.9316 351.793 12.9316C351.119 12.9316 350.475 13.0589 349.861 13.3135C349.262 13.568 348.701 13.9124 348.177 14.3467C347.668 14.766 347.203 15.2601 346.784 15.8291C346.365 16.3981 346.006 16.9971 345.706 17.626C345.422 18.2399 345.197 18.8688 345.032 19.5127C344.882 20.1566 344.808 20.7705 344.808 21.3545L344.763 31.3721C345.287 31.417 345.811 31.4844 346.335 31.5742C346.874 31.6641 347.421 31.7689 347.975 31.8887C348.259 31.9336 348.491 32.0684 348.671 32.293C348.851 32.5026 348.94 32.7497 348.94 33.0342C348.94 33.3786 348.813 33.6556 348.559 33.8652C348.319 34.0749 348.049 34.1797 347.75 34.1797H347.525C346.312 33.9551 345.16 33.7829 344.066 33.6631C342.973 33.5433 341.888 33.4834 340.81 33.4834C339.746 33.4834 338.668 33.5433 337.575 33.6631C336.482 33.7829 335.337 33.9551 334.139 34.1797H333.914C333.57 34.1797 333.285 34.0674 333.061 33.8428C332.851 33.6032 332.746 33.3337 332.746 33.0342C332.746 32.7497 332.828 32.5026 332.993 32.293C333.173 32.0684 333.397 31.9336 333.667 31.8887C334.191 31.7689 334.715 31.6715 335.239 31.5967C335.778 31.5218 336.302 31.4469 336.812 31.3721V4.59863C335.868 4.55371 335.075 4.5013 334.431 4.44141C333.787 4.36654 333.427 4.3291 333.353 4.3291C333.053 4.28418 332.806 4.14941 332.611 3.9248C332.432 3.7002 332.342 3.43815 332.342 3.13867C332.342 2.76432 332.477 2.47982 332.746 2.28516C333.016 2.09049 333.278 1.99316 333.532 1.99316H333.667C333.682 1.99316 333.854 2.01562 334.184 2.06055C334.513 2.09049 334.94 2.12793 335.464 2.17285C336.003 2.21777 336.609 2.2627 337.283 2.30762C337.957 2.33757 338.653 2.35254 339.372 2.35254C340.091 2.35254 340.795 2.33008 341.483 2.28516C342.172 2.22526 342.809 2.12793 343.393 1.99316H343.617C343.962 1.99316 344.246 2.11296 344.471 2.35254C344.695 2.57715 344.808 2.83919 344.808 3.13867V14.5488C345.661 13.2311 346.672 12.2428 347.84 11.584C349.023 10.9251 350.34 10.5957 351.793 10.5957C353.35 10.5957 354.653 10.8802 355.701 11.4492C356.764 12.0182 357.618 12.7894 358.262 13.7627C358.921 14.736 359.385 15.889 359.654 17.2217C359.939 18.5394 360.081 19.9469 360.081 21.4443C360.081 24.0947 359.684 27.2992 358.891 31.0576C359.355 31.0576 359.812 31.0801 360.261 31.125C360.725 31.1549 361.174 31.2074 361.608 31.2822C361.908 31.3122 362.155 31.4395 362.35 31.6641C362.559 31.8737 362.664 32.1283 362.664 32.4277C362.664 32.7572 362.537 33.0417 362.282 33.2812C362.028 33.5208 361.751 33.6406 361.451 33.6406ZM404.464 33.9102H404.307C403.753 33.8353 403.199 33.7829 402.645 33.7529C402.09 33.708 401.514 33.6855 400.915 33.6855C400.196 33.6855 399.425 33.723 398.602 33.7979C397.778 33.8577 396.85 33.9701 395.816 34.1348H395.614C395.3 34.1348 395.03 34.0225 394.806 33.7979C394.581 33.5583 394.469 33.2887 394.469 32.9893C394.469 32.6898 394.559 32.4277 394.738 32.2031C394.933 31.9785 395.165 31.8438 395.435 31.7988C396.108 31.709 396.745 31.6266 397.344 31.5518C397.943 31.4769 398.504 31.417 399.028 31.3721C399.133 30.848 399.253 30.1442 399.388 29.2607C399.537 28.3773 399.672 27.4414 399.792 26.4531C399.912 25.4499 400.009 24.4466 400.084 23.4434C400.174 22.4251 400.219 21.5267 400.219 20.748C400.219 20.0143 400.174 19.2656 400.084 18.502C399.994 17.7233 399.814 17.0195 399.545 16.3906C399.275 15.7617 398.886 15.2526 398.377 14.8633C397.883 14.459 397.224 14.2568 396.4 14.2568C395.352 14.2568 394.446 14.474 393.683 14.9082C392.934 15.3424 392.29 15.8815 391.751 16.5254C391.212 17.1543 390.77 17.8356 390.426 18.5693C390.096 19.3031 389.834 19.9694 389.64 20.5684C389.64 21.7663 389.595 22.9043 389.505 23.9824C389.46 24.6413 389.4 25.3226 389.325 26.0264C389.25 26.7152 389.175 27.389 389.101 28.0479C389.026 28.6917 388.951 29.3057 388.876 29.8896C388.801 30.4587 388.734 30.9528 388.674 31.3721C389.138 31.3721 389.61 31.3945 390.089 31.4395C390.583 31.4694 391.092 31.5068 391.616 31.5518C391.946 31.5817 392.2 31.709 392.38 31.9336C392.575 32.1582 392.672 32.4202 392.672 32.7197C392.672 33.0791 392.552 33.3711 392.312 33.5957C392.073 33.8053 391.811 33.9102 391.526 33.9102H391.392C390.763 33.8353 390.171 33.7904 389.617 33.7754C389.063 33.7454 388.517 33.7305 387.978 33.7305C387.199 33.7305 386.413 33.7679 385.619 33.8428C384.84 33.9027 383.987 34 383.059 34.1348H382.879C382.549 34.1348 382.272 34.0225 382.048 33.7979C381.838 33.5583 381.733 33.2887 381.733 32.9893C381.733 32.6898 381.823 32.4277 382.003 32.2031C382.198 31.9785 382.445 31.8438 382.744 31.7988C383.388 31.709 383.994 31.6341 384.563 31.5742C385.132 31.4993 385.709 31.4469 386.293 31.417C386.353 31.0426 386.42 30.571 386.495 30.002C386.57 29.418 386.645 28.7816 386.72 28.0928C386.81 27.404 386.892 26.6927 386.967 25.959C387.057 25.2253 387.124 24.514 387.169 23.8252C387.199 23.3161 387.229 22.7845 387.259 22.2305C387.289 21.6615 387.304 21.0775 387.304 20.4785C387.304 19.7598 387.266 19.0335 387.191 18.2998C387.117 17.5661 386.952 16.8997 386.697 16.3008C386.443 15.7018 386.076 15.2152 385.597 14.8408C385.132 14.4515 384.504 14.2568 383.71 14.2568C382.961 14.2568 382.272 14.429 381.644 14.7734C381.015 15.1029 380.446 15.5296 379.937 16.0537C379.427 16.5628 378.978 17.1318 378.589 17.7607C378.215 18.3747 377.893 18.9736 377.623 19.5576C377.354 20.1266 377.136 20.6357 376.972 21.085C376.822 21.5192 376.725 21.8187 376.68 21.9834L376.635 31.7988C376.904 31.8288 377.166 31.8587 377.421 31.8887C377.675 31.9186 377.93 31.9486 378.185 31.9785C378.484 32.0234 378.731 32.1582 378.926 32.3828C379.135 32.6074 379.24 32.8695 379.24 33.1689C379.24 33.4984 379.113 33.7754 378.858 34C378.619 34.2096 378.349 34.3145 378.05 34.3145H377.915C377.017 34.1947 376.096 34.0973 375.152 34.0225C374.224 33.9476 373.243 33.9102 372.21 33.9102C371.282 33.9102 370.301 33.9476 369.268 34.0225C368.249 34.1123 367.156 34.277 365.988 34.5166C365.943 34.5166 365.906 34.5241 365.876 34.5391C365.846 34.554 365.809 34.5615 365.764 34.5615C365.419 34.5615 365.142 34.4342 364.933 34.1797C364.723 33.9251 364.618 33.6481 364.618 33.3486C364.618 33.0791 364.701 32.832 364.865 32.6074C365.03 32.3828 365.255 32.248 365.539 32.2031C366.093 32.0833 366.625 31.9935 367.134 31.9336C367.643 31.8587 368.152 31.7988 368.661 31.7539V14.9531C367.718 14.9082 366.924 14.8558 366.28 14.7959C365.651 14.721 365.299 14.6836 365.225 14.6836C364.925 14.6387 364.678 14.5039 364.483 14.2793C364.304 14.0547 364.214 13.7926 364.214 13.4932C364.214 13.1188 364.349 12.8343 364.618 12.6396C364.888 12.43 365.15 12.3252 365.404 12.3252H365.539C365.554 12.3252 365.726 12.3477 366.056 12.3926C366.385 12.4225 366.812 12.4674 367.336 12.5273C367.875 12.5723 368.481 12.6172 369.155 12.6621C369.829 12.6921 370.525 12.707 371.244 12.707C371.963 12.707 372.667 12.6846 373.355 12.6396C374.044 12.5798 374.673 12.4749 375.242 12.3252H375.467C375.811 12.3252 376.096 12.445 376.32 12.6846C376.56 12.9242 376.68 13.1937 376.68 13.4932V16.4355C377.039 15.8516 377.451 15.29 377.915 14.751C378.394 14.2119 378.926 13.7327 379.51 13.3135C380.094 12.8942 380.738 12.5573 381.441 12.3027C382.145 12.0482 382.901 11.9209 383.71 11.9209C384.429 11.9209 385.08 12.0257 385.664 12.2354C386.248 12.445 386.765 12.7445 387.214 13.1338C387.678 13.5081 388.075 13.9574 388.404 14.4814C388.734 15.0055 388.996 15.5745 389.19 16.1885C389.52 15.6794 389.909 15.1702 390.358 14.6611C390.823 14.152 391.347 13.6953 391.931 13.291C392.53 12.8867 393.196 12.5573 393.93 12.3027C394.678 12.0482 395.502 11.9209 396.4 11.9209C397.658 11.9209 398.684 12.1904 399.478 12.7295C400.286 13.2686 400.923 13.9574 401.387 14.7959C401.851 15.6344 402.173 16.5778 402.353 17.626C402.532 18.6742 402.622 19.6999 402.622 20.7031C402.622 21.4967 402.577 22.3877 402.487 23.376C402.412 24.3493 402.315 25.3226 402.195 26.2959C402.076 27.2692 401.948 28.2051 401.813 29.1035C401.694 29.987 401.581 30.7282 401.477 31.3271C402.031 31.3271 402.562 31.3496 403.071 31.3945C403.58 31.4245 404.09 31.4769 404.599 31.5518C404.898 31.5817 405.145 31.709 405.34 31.9336C405.549 32.1582 405.654 32.4202 405.654 32.7197C405.654 33.0342 405.527 33.3112 405.272 33.5508C405.033 33.7904 404.763 33.9102 404.464 33.9102ZM430.945 27.5986C430.945 28.4521 430.796 29.2383 430.496 29.957C430.197 30.6608 429.792 31.3047 429.283 31.8887C428.774 32.4577 428.183 32.9593 427.509 33.3936C426.85 33.8128 426.146 34.1647 425.397 34.4492C424.664 34.7487 423.915 34.9658 423.151 35.1006C422.388 35.2503 421.654 35.3252 420.95 35.3252C419.049 35.3252 417.259 35.0407 415.582 34.4717C413.905 33.9176 412.385 33.0566 411.022 31.8887C411.022 32.1432 411.022 32.3978 411.022 32.6523C411.022 32.8919 411.037 33.124 411.067 33.3486V33.4385C411.067 33.738 410.963 34.0075 410.753 34.2471C410.558 34.4867 410.311 34.6064 410.012 34.6064C409.667 34.6064 409.368 34.5016 409.113 34.292C408.874 34.0973 408.739 33.8503 408.709 33.5508C408.679 33.2513 408.664 32.9518 408.664 32.6523C408.664 32.3379 408.664 32.0234 408.664 31.709C408.664 31.1549 408.672 30.6084 408.687 30.0693C408.716 29.5303 408.746 29.0511 408.776 28.6318C408.806 28.1976 408.829 27.8457 408.844 27.5762C408.874 27.2917 408.896 27.1344 408.911 27.1045C408.941 26.805 409.061 26.5579 409.271 26.3633C409.495 26.1536 409.757 26.0488 410.057 26.0488C410.431 26.0488 410.723 26.1686 410.933 26.4082C411.142 26.6478 411.247 26.9098 411.247 27.1943V27.3291C411.232 27.4489 411.217 27.5837 411.202 27.7334C411.187 27.8532 411.172 28.0029 411.157 28.1826C411.142 28.3623 411.127 28.557 411.112 28.7666C412.475 30.2191 413.972 31.2822 415.604 31.9561C417.252 32.6149 419.034 32.9443 420.95 32.9443C421.175 32.9443 421.467 32.9294 421.826 32.8994C422.186 32.8695 422.56 32.8245 422.949 32.7646C423.354 32.6898 423.758 32.5999 424.162 32.4951C424.566 32.3753 424.926 32.2331 425.24 32.0684C425.57 31.8887 425.832 31.679 426.026 31.4395C426.236 31.1999 426.341 30.9154 426.341 30.5859C426.341 30.2565 426.191 29.9645 425.892 29.71C425.607 29.4404 425.24 29.2008 424.791 28.9912C424.342 28.7816 423.84 28.6019 423.286 28.4521C422.747 28.3024 422.215 28.1751 421.691 28.0703C421.182 27.9655 420.718 27.8831 420.299 27.8232C419.895 27.7633 419.595 27.7184 419.4 27.6885C418.113 27.5537 416.84 27.3066 415.582 26.9473C414.339 26.5729 413.216 26.0638 412.213 25.4199C411.21 24.776 410.401 23.9824 409.787 23.0391C409.173 22.0957 408.866 20.9801 408.866 19.6924C408.866 18.3747 409.136 17.1917 409.675 16.1436C410.214 15.0804 410.918 14.182 411.786 13.4482C412.67 12.7145 413.673 12.153 414.796 11.7637C415.934 11.3743 417.094 11.1797 418.277 11.1797C419.835 11.1797 421.31 11.3743 422.702 11.7637C424.11 12.138 425.397 12.7295 426.565 13.5381C426.7 13.2087 426.857 12.8792 427.037 12.5498C427.217 12.2054 427.396 11.876 427.576 11.5615C427.696 11.3669 427.846 11.2246 428.025 11.1348C428.22 11.0449 428.407 11 428.587 11C428.931 11 429.216 11.1198 429.44 11.3594C429.665 11.584 429.777 11.846 429.777 12.1455C429.777 12.3851 429.717 12.5872 429.598 12.752C429.029 13.7702 428.549 14.8034 428.16 15.8516C427.786 16.8848 427.531 17.9329 427.396 18.9961C427.352 19.2806 427.217 19.5202 426.992 19.7148C426.768 19.9095 426.506 20.0068 426.206 20.0068C425.877 20.0068 425.6 19.887 425.375 19.6475C425.15 19.3929 425.038 19.1159 425.038 18.8164V18.6367C425.203 17.7083 425.42 16.7725 425.689 15.8291C424.611 14.9756 423.436 14.3841 422.163 14.0547C420.89 13.7103 419.595 13.5381 418.277 13.5381C417.828 13.5381 417.356 13.5905 416.862 13.6953C416.368 13.7852 415.904 13.9424 415.47 14.167C415.05 14.3766 414.699 14.6611 414.414 15.0205C414.145 15.3799 414.01 15.8216 414.01 16.3457C414.01 16.8099 414.16 17.2217 414.459 17.5811C414.758 17.9255 415.14 18.2324 415.604 18.502C416.069 18.7715 416.585 19.0036 417.154 19.1982C417.738 19.3929 418.307 19.5576 418.861 19.6924C419.43 19.8271 419.954 19.9395 420.434 20.0293C420.928 20.1191 421.317 20.194 421.602 20.2539C422.65 20.4635 423.72 20.7406 424.813 21.085C425.922 21.4144 426.925 21.8636 427.823 22.4326C428.737 22.9867 429.485 23.6829 430.069 24.5215C430.653 25.36 430.945 26.3857 430.945 27.5986Z" fill="url(#paint0_linear_3_6)"/>
<defs>
<linearGradient id="paint0_linear_3_6" x1="215.5" y1="-14" x2="215.5" y2="49" gradientUnits="userSpaceOnUse">
<stop stop-color="#742BFA"/>
<stop offset="1" stop-color="#9A47E9"/>
</linearGradient>
</defs>
</svg>
