<?xml version="1.0" encoding="utf-8"?>
<!-- Generator: Adobe Illustrator 19.1.0, SVG Export Plug-In . SVG Version: 6.00 Build 0)  -->
<svg version="1.1" id="Layer_1" xmlns="http://www.w3.org/2000/svg" xmlns:xlink="http://www.w3.org/1999/xlink" x="0px" y="0px"
	 viewBox="0 0 64 64" enable-background="new 0 0 64 64" xml:space="preserve">
<path id="Pencil-and-ruler" d="M64.0000229,10.19065c0.0009003-0.2660999-0.1044998-0.5214005-0.2930031-0.7094002
	L54.7949219,0.56915c-0.1875-0.1875-0.4413986-0.293-0.7070007-0.293c-0.0009995,0-0.0019989,0-0.0029984,0
	c-0.2656021,0.0005-0.5205002,0.1074-0.7080002,0.2969l-22.7616997,23.0112
	c-0.0425014,0.0430012-0.0625,0.0974007-0.0957012,0.1455002L8.5810223,1.79125c-0.3905993-0.3906-1.0233994-0.3906-1.4139996,0
	L0.2929229,8.66535c-0.3906,0.3906002-0.3906,1.0234003,0,1.4140005l22.0042,22.0049019l-4.4068012,4.3582001
	c-0.0675983,0.0410004-0.1393986,0.0728989-0.198,0.1315002c-0.0553989,0.0555-0.0848999,0.1237984-0.124485,0.1875
	L0.8291229,53.3161507c-0.1895,0.1870003-0.2959,0.4418983-0.2969,0.7080002c-0.001,0.2665977,0.1045,0.5219994,0.293,0.7099991
	l8.6981993,8.6968002c0.1875,0.1875,0.4414158,0.2929001,0.7070007,0.2929001c0.0009995,0,0.0019999,0,0.0029993,0
	c0.2666006-0.0009003,0.5214157-0.107399,0.7080002-0.2967987l20.9961014-21.2364006
	c0.0821991-0.0830002,0.1373978-0.1811028,0.1844978-0.2812004l14.6748161,14.6753006
	c0.0898857,0.0902977,0.1972847,0.1625977,0.3144836,0.2123985l12.0039024,5.1283989
	c0.1259995,0.054203,0.2598,0.0806007,0.3926163,0.0806007c0.2596817,0,0.515583-0.1016006,0.7069969-0.2929993
	c0.2890854-0.2891006,0.373085-0.7240982,0.2128868-1.1001015l-5.1298866-12.0038986
	c-0.0508156-0.1171989-0.1229973-0.2235985-0.2129135-0.3139992L40.5754204,33.7856483l23.1277008-22.8864975
	C63.8925209,10.7116499,63.9990196,10.4568501,64.0000229,10.19065z M7.874023,3.9123499l5.5898147,5.5899L8.003623,14.9619503
	L2.4140229,9.3723497L7.874023,3.9123499z M30.5156231,40.7844505L10.2265224,61.3059502L2.950223,54.0310516l7.9572001-7.8697014
	l1.8308001,1.8296013c0.1953993,0.1948967,0.4511995,0.2924995,0.7070999,0.2924995
	c0.2557993,0,0.5116997-0.0976028,0.7069998-0.2929993c0.3906002-0.3906021,0.3906002-1.0239029,0-1.4145012l-1.822485-1.8213005
	l6.0978851-6.0312004l1.9491997,1.9491997c0.1952991,0.1953011,0.4512005,0.2929001,0.7070007,0.2929001
	c0.2559147,0,0.5117989-0.097599,0.7070999-0.2929001c0.3905983-0.3905983,0.3905983-1.0234985,0-1.4141006l-1.9414005-1.9413986
	l3.8614998-3.8188019l7.0923004,7.0925026C30.700222,40.6394501,30.6003227,40.6985512,30.5156231,40.7844505z
	 M57.6093216,59.107151l-9.535099-4.0732002L9.4174223,16.3762493l5.4610004-5.4594994l38.6557007,38.6557999L57.6093216,59.107151z
	 M39.1613235,32.3716507L31.883522,25.09375c0.0510006-0.0351009,0.1084003-0.0576,0.1535988-0.1033001l4.1459999-4.1914005
	l1.974102,1.9742012c0.1953011,0.1952991,0.4511986,0.2929001,0.7070007,0.2929001
	c0.2558975,0,0.5116997-0.0976009,0.7070999-0.2929001c0.3905983-0.3907013,0.3905983-1.0235004,0-1.4141006l-1.9820023-1.9818993
	l5.4177017-5.4768009l2.0710983,2.0700006c0.1953011,0.1953001,0.4512024,0.2930002,0.7070007,0.2930002
	c0.2559013,0,0.5117149-0.0977001,0.7070999-0.2930002c0.3906174-0.3906002,0.3906174-1.0239,0-1.4140005L44.4133224,12.47855
	l9.6785164-9.7844l7.490181,7.4902L39.1613235,32.3716507z"/>
<g>
</g>
<g>
</g>
<g>
</g>
<g>
</g>
<g>
</g>
<g>
</g>
<g>
</g>
<g>
</g>
<g>
</g>
<g>
</g>
<g>
</g>
<g>
</g>
<g>
</g>
<g>
</g>
<g>
</g>
</svg>
